<svg id="enrichment_category_graph_svg" height="302.27976pt" version="1.1" viewBox="0 0 659.39976 302.27976" width="659.39976pt" xmlns="http://www.w3.org/2000/svg" xmlns:xlink="http://www.w3.org/1999/xlink">
 <metadata>
  <rdf:rdf xmlns:cc="http://creativecommons.org/ns#" xmlns:dc="http://purl.org/dc/elements/1.1/" xmlns:rdf="http://www.w3.org/1999/02/22-rdf-syntax-ns#">
   <cc:work>
    <dc:type rdf:resource="http://purl.org/dc/dcmitype/StillImage"/>
    <dc:date>2025-09-18T13:26:09.431719</dc:date>
    <dc:format>image/svg+xml</dc:format>
    <dc:creator>
     <cc:agent>
      <dc:title>Matplotlib v3.4.2, https://matplotlib.org/</dc:title>
     </cc:agent>
    </dc:creator>
   </cc:work>
  </rdf:rdf>
 </metadata>
 <defs>
  <style type="text/css">*{stroke-linecap:butt;stroke-linejoin:round;}</style>
 </defs>
 <g id="figure_1">
  <g id="patch_1">
   <path d="M 0 302.27976 &#xA;L 659.39976 302.27976 &#xA;L 659.39976 0 &#xA;L 0 0 &#xA;z&#xA;" style="fill:none;"/>
  </g>
  <g id="axes_1">
   <g id="patch_2">
    <path d="M 147.755937 265.022801 &#xA;L 543.726803 265.022801 &#xA;L 543.726803 21.214531 &#xA;L 147.755937 21.214531 &#xA;z&#xA;" style="fill:none;"/>
   </g>
   <g id="matplotlib.axis_1">
    <g id="xtick_1">
     <g id="line2d_1">
      <path clip-path="url(#p6efd7c98b3)" d="M 162.098767 265.022801 &#xA;L 162.098767 21.214531 &#xA;" style="fill:none;stroke:#d3d3d3;stroke-dasharray:2.22,0.96;stroke-dashoffset:0;stroke-width:0.6;"/>
     </g>
     <g id="line2d_2"/>
     <g id="text_1">
      <text style="font-family:Arial;font-size:9px;font-stretch:normal;font-style:normal;font-weight:normal;text-anchor:middle;" transform="rotate(-0, 162.098767, 274.964832)" x="162.098767" y="274.964832">1</text>
     </g>
    </g>
    <g id="xtick_2">
     <g id="line2d_3">
      <path clip-path="url(#p6efd7c98b3)" d="M 217.081582 265.022801 &#xA;L 217.081582 21.214531 &#xA;" style="fill:none;stroke:#d3d3d3;stroke-dasharray:2.22,0.96;stroke-dashoffset:0;stroke-width:0.6;"/>
     </g>
     <g id="line2d_4"/>
     <g id="text_2">
      <text style="font-family:Arial;font-size:9px;font-stretch:normal;font-style:normal;font-weight:normal;text-anchor:middle;" transform="rotate(-0, 217.081582, 274.964832)" x="217.081582" y="274.964832">2</text>
     </g>
    </g>
    <g id="xtick_3">
     <g id="line2d_5">
      <path clip-path="url(#p6efd7c98b3)" d="M 272.064398 265.022801 &#xA;L 272.064398 21.214531 &#xA;" style="fill:none;stroke:#d3d3d3;stroke-dasharray:2.22,0.96;stroke-dashoffset:0;stroke-width:0.6;"/>
     </g>
     <g id="line2d_6"/>
     <g id="text_3">
      <text style="font-family:Arial;font-size:9px;font-stretch:normal;font-style:normal;font-weight:normal;text-anchor:middle;" transform="rotate(-0, 272.064398, 274.964832)" x="272.064398" y="274.964832">3</text>
     </g>
    </g>
    <g id="xtick_4">
     <g id="line2d_7">
      <path clip-path="url(#p6efd7c98b3)" d="M 327.047213 265.022801 &#xA;L 327.047213 21.214531 &#xA;" style="fill:none;stroke:#d3d3d3;stroke-dasharray:2.22,0.96;stroke-dashoffset:0;stroke-width:0.6;"/>
     </g>
     <g id="line2d_8"/>
     <g id="text_4">
      <text style="font-family:Arial;font-size:9px;font-stretch:normal;font-style:normal;font-weight:normal;text-anchor:middle;" transform="rotate(-0, 327.047213, 274.964832)" x="327.047213" y="274.964832">4</text>
     </g>
    </g>
    <g id="xtick_5">
     <g id="line2d_9">
      <path clip-path="url(#p6efd7c98b3)" d="M 382.030029 265.022801 &#xA;L 382.030029 21.214531 &#xA;" style="fill:none;stroke:#d3d3d3;stroke-dasharray:2.22,0.96;stroke-dashoffset:0;stroke-width:0.6;"/>
     </g>
     <g id="line2d_10"/>
     <g id="text_5">
      <text style="font-family:Arial;font-size:9px;font-stretch:normal;font-style:normal;font-weight:normal;text-anchor:middle;" transform="rotate(-0, 382.030029, 274.964832)" x="382.030029" y="274.964832">5</text>
     </g>
    </g>
    <g id="xtick_6">
     <g id="line2d_11">
      <path clip-path="url(#p6efd7c98b3)" d="M 437.012844 265.022801 &#xA;L 437.012844 21.214531 &#xA;" style="fill:none;stroke:#d3d3d3;stroke-dasharray:2.22,0.96;stroke-dashoffset:0;stroke-width:0.6;"/>
     </g>
     <g id="line2d_12"/>
     <g id="text_6">
      <text style="font-family:Arial;font-size:9px;font-stretch:normal;font-style:normal;font-weight:normal;text-anchor:middle;" transform="rotate(-0, 437.012844, 274.964832)" x="437.012844" y="274.964832">6</text>
     </g>
    </g>
    <g id="xtick_7">
     <g id="line2d_13">
      <path clip-path="url(#p6efd7c98b3)" d="M 491.99566 265.022801 &#xA;L 491.99566 21.214531 &#xA;" style="fill:none;stroke:#d3d3d3;stroke-dasharray:2.22,0.96;stroke-dashoffset:0;stroke-width:0.6;"/>
     </g>
     <g id="line2d_14"/>
     <g id="text_7">
      <text style="font-family:Arial;font-size:9px;font-stretch:normal;font-style:normal;font-weight:normal;text-anchor:middle;" transform="rotate(-0, 491.99566, 274.964832)" x="491.99566" y="274.964832">7</text>
     </g>
    </g>
    <g id="text_8">
     <text style="font-family:Arial;font-size:9px;font-stretch:normal;font-style:normal;font-weight:normal;text-anchor:middle;" transform="rotate(-0, 345.74137, 287.305301)" x="345.74137" y="287.305301">Signal</text>
    </g>
   </g>
   <g id="matplotlib.axis_2">
    <g id="ytick_1">
     <g id="line2d_15"/>
     <g id="text_9">
      <text style="font-family:Arial;font-size:9px;font-stretch:normal;font-style:normal;font-weight:normal;text-anchor:end;" transform="rotate(-0, 144.255937, 73.254857)" x="144.255937" y="73.254857">Olfactory receptor activity</text>
     </g>
    </g>
    <g id="ytick_2">
     <g id="line2d_16"/>
     <g id="text_10">
      <text style="font-family:Arial;font-size:9px;font-stretch:normal;font-style:normal;font-weight:normal;text-anchor:end;" transform="rotate(-0, 144.255937, 122.013699)" x="144.255937" y="122.013699">G protein-coupled receptor activity</text>
     </g>
    </g>
    <g id="ytick_3">
     <g id="line2d_17"/>
     <g id="text_11">
      <text style="font-family:Arial;font-size:9px;font-stretch:normal;font-style:normal;font-weight:normal;text-anchor:end;" transform="rotate(-0, 144.255937, 170.778165)" x="144.255937" y="170.778165">Odorant binding</text>
     </g>
    </g>
    <g id="ytick_4">
     <g id="line2d_18"/>
     <g id="text_12">
      <text style="font-family:Arial;font-size:9px;font-stretch:normal;font-style:normal;font-weight:normal;text-anchor:end;" transform="rotate(-0, 144.255937, 219.539819)" x="144.255937" y="219.539819">Olfactory receptor binding</text>
     </g>
    </g>
   </g>
   <g id="patch_3">
    <path clip-path="url(#p6efd7c98b3)" d="M 147.755937 192.855553 &#xA;L 543.726803 192.855553 &#xA;L 543.726803 236.741042 &#xA;L 147.755937 236.741042 &#xA;z&#xA;" style="fill:#234da0;opacity:0.1;"/>
   </g>
   <g id="patch_4">
    <path clip-path="url(#p6efd7c98b3)" d="M 147.755937 144.093899 &#xA;L 543.726803 144.093899 &#xA;L 543.726803 187.979388 &#xA;L 147.755937 187.979388 &#xA;z&#xA;" style="fill:#2fa4c2;opacity:0.1;"/>
   </g>
   <g id="patch_5">
    <path clip-path="url(#p6efd7c98b3)" d="M 147.755937 46.570591 &#xA;L 543.726803 46.570591 &#xA;L 543.726803 139.217734 &#xA;L 147.755937 139.217734 &#xA;z&#xA;" style="fill:#d6efb3;opacity:0.1;"/>
   </g>
   <g id="horizontalLine_Function:GO.0004984">
    <path data-original-stroke="grey" clip-path="url(#p6efd7c98b3)" d="M 147.755937 69.976185 &#xA;L 522.786037 69.976185 &#xA;" style="fill:none;stroke:#d6efb3;stroke-linecap:square;stroke-width:3;"/>
   </g>
   <g id="horizontalLine_Function:GO.0004930">
    <path data-original-stroke="grey" clip-path="url(#p6efd7c98b3)" d="M 147.755937 118.737839 &#xA;L 338.043776 118.737839 &#xA;" style="fill:none;stroke:#a0dab8;stroke-linecap:square;stroke-width:3;"/>
   </g>
   <g id="horizontalLine_Function:GO.0005549">
    <path data-original-stroke="grey" clip-path="url(#p6efd7c98b3)" d="M 147.755937 167.499493 &#xA;L 391.926936 167.499493 &#xA;" style="fill:none;stroke:#2fa4c2;stroke-linecap:square;stroke-width:3;"/>
   </g>
   <g id="horizontalLine_Function:GO.0031849">
    <path data-original-stroke="grey" clip-path="url(#p6efd7c98b3)" d="M 147.755937 216.261147 &#xA;L 168.696704 216.261147 &#xA;" style="fill:none;stroke:#234da0;stroke-linecap:square;stroke-width:3;"/>
   </g>
   <g id="line2d_19">
    <path clip-path="url(#p6efd7c98b3)" d="M 147.755937 69.976185 &#xA;L 522.786037 69.976185 &#xA;" style="fill:none;stroke:#ffffff;stroke-linecap:square;stroke-opacity:0.4;stroke-width:3;"/>
   </g>
   <g id="line2d_20">
    <path clip-path="url(#p6efd7c98b3)" d="M 147.755937 118.737839 &#xA;L 338.043776 118.737839 &#xA;" style="fill:none;stroke:#ffffff;stroke-linecap:square;stroke-opacity:0.4;stroke-width:3;"/>
   </g>
   <g id="line2d_21">
    <path clip-path="url(#p6efd7c98b3)" d="M 147.755937 167.499493 &#xA;L 391.926936 167.499493 &#xA;" style="fill:none;stroke:#ffffff;stroke-linecap:square;stroke-opacity:0.4;stroke-width:3;"/>
   </g>
   <g id="line2d_22">
    <path clip-path="url(#p6efd7c98b3)" d="M 147.755937 216.261147 &#xA;L 168.696704 216.261147 &#xA;" style="fill:none;stroke:#ffffff;stroke-linecap:square;stroke-opacity:0.4;stroke-width:3;"/>
   </g>
   <g id="dots_plot">
    <path id="circle_Function:GO.0004984" data-original-stroke="grey" clip-path="url(#p6efd7c98b3)" d="M 522.786037 82.223634 &#xA;C 526.034098 82.223634 529.149564 80.933166 531.446291 78.636439 &#xA;C 533.743017 76.339713 535.033485 73.224247 535.033485 69.976185 &#xA;C 535.033485 66.728124 533.743017 63.612657 531.446291 61.315931 &#xA;C 529.149564 59.019205 526.034098 57.728737 522.786037 57.728737 &#xA;C 519.537975 57.728737 516.422509 59.019205 514.125783 61.315931 &#xA;C 511.829056 63.612657 510.538588 66.728124 510.538588 69.976185 &#xA;C 510.538588 73.224247 511.829056 76.339713 514.125783 78.636439 &#xA;C 516.422509 80.933166 519.537975 82.223634 522.786037 82.223634 &#xA;z&#xA;" style="fill:#d6efb3;stroke:#d6efb3;stroke-width:2.2;"/>
    <path id="circle_Function:GO.0004930" data-original-stroke="grey" clip-path="url(#p6efd7c98b3)" d="M 338.043776 130.985288 &#xA;C 341.291838 130.985288 344.407304 129.69482 346.70403 127.398093 &#xA;C 349.000757 125.101367 350.291225 121.985901 350.291225 118.737839 &#xA;C 350.291225 115.489778 349.000757 112.374311 346.70403 110.077585 &#xA;C 344.407304 107.780859 341.291838 106.490391 338.043776 106.490391 &#xA;C 334.795715 106.490391 331.680249 107.780859 329.383522 110.077585 &#xA;C 327.086796 112.374311 325.796328 115.489778 325.796328 118.737839 &#xA;C 325.796328 121.985901 327.086796 125.101367 329.383522 127.398093 &#xA;C 331.680249 129.69482 334.795715 130.985288 338.043776 130.985288 &#xA;z&#xA;" style="fill:#a0dab8;stroke:#a0dab8;stroke-width:2.2;"/>
    <path id="circle_Function:GO.0005549" data-original-stroke="grey" clip-path="url(#p6efd7c98b3)" d="M 391.926936 175.215676 &#xA;C 393.973291 175.215676 395.936109 174.40265 397.383101 172.955658 &#xA;C 398.830092 171.508666 399.643118 169.545849 399.643118 167.499493 &#xA;C 399.643118 165.453138 398.830092 163.49032 397.383101 162.043328 &#xA;C 395.936109 160.596336 393.973291 159.783311 391.926936 159.783311 &#xA;C 389.88058 159.783311 387.917762 160.596336 386.470771 162.043328 &#xA;C 385.023779 163.49032 384.210753 165.453138 384.210753 167.499493 &#xA;C 384.210753 169.545849 385.023779 171.508666 386.470771 172.955658 &#xA;C 387.917762 174.40265 389.88058 175.215676 391.926936 175.215676 &#xA;z&#xA;" style="fill:#2fa4c2;stroke:#2fa4c2;stroke-width:2.2;"/>
    <path id="circle_Function:GO.0031849" data-original-stroke="grey" clip-path="url(#p6efd7c98b3)" d="M 168.696704 219.796681 &#xA;C 169.634339 219.796681 170.533697 219.424155 171.196704 218.761147 &#xA;C 171.859712 218.098139 172.232238 217.198782 172.232238 216.261147 &#xA;C 172.232238 215.323513 171.859712 214.424155 171.196704 213.761147 &#xA;C 170.533697 213.098139 169.634339 212.725613 168.696704 212.725613 &#xA;C 167.75907 212.725613 166.859712 213.098139 166.196704 213.761147 &#xA;C 165.533697 214.424155 165.161171 215.323513 165.161171 216.261147 &#xA;C 165.161171 217.198782 165.533697 218.098139 166.196704 218.761147 &#xA;C 166.859712 219.424155 167.75907 219.796681 168.696704 219.796681 &#xA;z&#xA;" style="fill:#234da0;stroke:#234da0;stroke-width:2.2;"/>
   </g>
   <g id="PathCollection_1">
    <path clip-path="url(#p6efd7c98b3)" d="M 522.786037 82.223634 &#xA;C 526.034098 82.223634 529.149564 80.933166 531.446291 78.636439 &#xA;C 533.743017 76.339713 535.033485 73.224247 535.033485 69.976185 &#xA;C 535.033485 66.728124 533.743017 63.612657 531.446291 61.315931 &#xA;C 529.149564 59.019205 526.034098 57.728737 522.786037 57.728737 &#xA;C 519.537975 57.728737 516.422509 59.019205 514.125783 61.315931 &#xA;C 511.829056 63.612657 510.538588 66.728124 510.538588 69.976185 &#xA;C 510.538588 73.224247 511.829056 76.339713 514.125783 78.636439 &#xA;C 516.422509 80.933166 519.537975 82.223634 522.786037 82.223634 &#xA;z&#xA;" style="fill:none;stroke:#808080;stroke-opacity:0.45;stroke-width:2.2;"/>
    <path clip-path="url(#p6efd7c98b3)" d="M 338.043776 130.985288 &#xA;C 341.291838 130.985288 344.407304 129.69482 346.70403 127.398093 &#xA;C 349.000757 125.101367 350.291225 121.985901 350.291225 118.737839 &#xA;C 350.291225 115.489778 349.000757 112.374311 346.70403 110.077585 &#xA;C 344.407304 107.780859 341.291838 106.490391 338.043776 106.490391 &#xA;C 334.795715 106.490391 331.680249 107.780859 329.383522 110.077585 &#xA;C 327.086796 112.374311 325.796328 115.489778 325.796328 118.737839 &#xA;C 325.796328 121.985901 327.086796 125.101367 329.383522 127.398093 &#xA;C 331.680249 129.69482 334.795715 130.985288 338.043776 130.985288 &#xA;z&#xA;" style="fill:none;stroke:#808080;stroke-opacity:0.45;stroke-width:2.2;"/>
    <path clip-path="url(#p6efd7c98b3)" d="M 391.926936 175.215676 &#xA;C 393.973291 175.215676 395.936109 174.40265 397.383101 172.955658 &#xA;C 398.830092 171.508666 399.643118 169.545849 399.643118 167.499493 &#xA;C 399.643118 165.453138 398.830092 163.49032 397.383101 162.043328 &#xA;C 395.936109 160.596336 393.973291 159.783311 391.926936 159.783311 &#xA;C 389.88058 159.783311 387.917762 160.596336 386.470771 162.043328 &#xA;C 385.023779 163.49032 384.210753 165.453138 384.210753 167.499493 &#xA;C 384.210753 169.545849 385.023779 171.508666 386.470771 172.955658 &#xA;C 387.917762 174.40265 389.88058 175.215676 391.926936 175.215676 &#xA;z&#xA;" style="fill:none;stroke:#808080;stroke-opacity:0.45;stroke-width:2.2;"/>
    <path clip-path="url(#p6efd7c98b3)" d="M 168.696704 219.796681 &#xA;C 169.634339 219.796681 170.533697 219.424155 171.196704 218.761147 &#xA;C 171.859712 218.098139 172.232238 217.198782 172.232238 216.261147 &#xA;C 172.232238 215.323513 171.859712 214.424155 171.196704 213.761147 &#xA;C 170.533697 213.098139 169.634339 212.725613 168.696704 212.725613 &#xA;C 167.75907 212.725613 166.859712 213.098139 166.196704 213.761147 &#xA;C 165.533697 214.424155 165.161171 215.323513 165.161171 216.261147 &#xA;C 165.161171 217.198782 165.533697 218.098139 166.196704 218.761147 &#xA;C 166.859712 219.424155 167.75907 219.796681 168.696704 219.796681 &#xA;z&#xA;" style="fill:none;stroke:#808080;stroke-opacity:0.45;stroke-width:2.2;"/>
   </g>
   <g id="text_13">
    <text style="font-family:Arial;font-size:11px;font-stretch:normal;font-style:normal;font-weight:normal;text-anchor:middle;" transform="rotate(-0, 345.74137, 15.214531)" x="345.74137" y="15.214531">Molecular Function (Gene Ontology) enrichment</text>
   </g>
   <g id="line2d_23">
    <path clip-path="url(#p6efd7c98b3)" d="M 522.786037 59.004813 &#xA;L 522.786037 80.947557 &#xA;" style="fill:none;stroke:#808080;stroke-dasharray:1.85,0.8;stroke-dashoffset:0;stroke-width:0.5;"/>
   </g>
   <g id="line2d_24">
    <path clip-path="url(#p6efd7c98b3)" d="M 338.043776 107.766467 &#xA;L 338.043776 129.709211 &#xA;" style="fill:none;stroke:#808080;stroke-dasharray:1.85,0.8;stroke-dashoffset:0;stroke-width:0.5;"/>
   </g>
   <g id="line2d_25">
    <path clip-path="url(#p6efd7c98b3)" d="M 391.926936 163.144628 &#xA;L 391.926936 171.854358 &#xA;" style="fill:none;stroke:#808080;stroke-dasharray:1.85,0.8;stroke-dashoffset:0;stroke-width:0.5;"/>
   </g>
   <g id="line2d_26">
    <path clip-path="url(#p6efd7c98b3)" d="M 168.696704 215.346866 &#xA;L 168.696704 217.175428 &#xA;" style="fill:none;stroke:#808080;stroke-dasharray:1.85,0.8;stroke-dashoffset:0;stroke-width:0.5;"/>
   </g>
   <g id="invisibleRectangle_Function:GO.0031849" style="cursor: pointer;">
    <path clip-path="url(#p6efd7c98b3)" d="M 147.755937 192.855553 &#xA;L 543.726803 192.855553 &#xA;L 543.726803 236.741042 &#xA;L 147.755937 236.741042 &#xA;z&#xA;" style="fill:#ffffff;opacity:0.01;"/>
   </g>
   <g id="invisibleRectangle_Function:GO.0005549" style="cursor: pointer;">
    <path clip-path="url(#p6efd7c98b3)" d="M 147.755937 144.093899 &#xA;L 543.726803 144.093899 &#xA;L 543.726803 187.979388 &#xA;L 147.755937 187.979388 &#xA;z&#xA;" style="fill:#ffffff;opacity:0.01;"/>
   </g>
   <g id="invisibleRectangle_Function:GO.0004930" style="cursor: pointer;">
    <path clip-path="url(#p6efd7c98b3)" d="M 147.755937 95.332245 &#xA;L 543.726803 95.332245 &#xA;L 543.726803 139.217734 &#xA;L 147.755937 139.217734 &#xA;z&#xA;" style="fill:#ffffff;opacity:0.01;"/>
   </g>
   <g id="invisibleRectangle_Function:GO.0004984" style="cursor: pointer;">
    <path clip-path="url(#p6efd7c98b3)" d="M 147.755937 46.570591 &#xA;L 543.726803 46.570591 &#xA;L 543.726803 90.45608 &#xA;L 147.755937 90.45608 &#xA;z&#xA;" style="fill:#ffffff;opacity:0.01;"/>
   </g>
  </g>
  <g id="axes_2">
   <g id="patch_6">
    <path d="M 550.206803 265.022801 &#xA;L 649.19952 265.022801 &#xA;L 649.19952 21.214531 &#xA;L 550.206803 21.214531 &#xA;z&#xA;" style="fill:none;"/>
   </g>
   <g id="patch_7">
    <path clip-path="url(#p9b6236a1c0)" d="M 550.206803 236.98485 &#xA;L 562.580893 236.98485 &#xA;L 562.580893 192.611745 &#xA;L 550.206803 192.611745 &#xA;z&#xA;" style="fill:#234da0;"/>
   </g>
   <g id="patch_8">
    <path clip-path="url(#p9b6236a1c0)" d="M 550.206803 188.223196 &#xA;L 562.580893 188.223196 &#xA;L 562.580893 143.850091 &#xA;L 550.206803 143.850091 &#xA;z&#xA;" style="fill:#2fa4c2;"/>
   </g>
   <g id="patch_9">
    <path clip-path="url(#p9b6236a1c0)" d="M 550.206803 139.461542 &#xA;L 562.580893 139.461542 &#xA;L 562.580893 46.326783 &#xA;L 550.206803 46.326783 &#xA;z&#xA;" style="fill:#d6efb3;"/>
   </g>
   <g id="matplotlib.axis_3"/>
   <g id="matplotlib.axis_4"/>
   <g id="text_14">
    <text style="font-family:Arial;font-size:9px;font-stretch:normal;font-style:normal;font-weight:normal;" transform="translate(577.283733 184.726936)rotate(-90)">Groups at similarity 0.8</text>
   </g>
  </g>
  <g id="axes_3">
   <g id="patch_10">
    <path d="M 587.39976 122.99976 &#xA;L 652.19976 122.99976 &#xA;L 652.19976 14.99976 &#xA;L 587.39976 14.99976 &#xA;z&#xA;" style="fill:none;"/>
   </g>
   <g id="PathCollection_2">
    <defs>
     <path d="M -70.710678 70.710678 &#xA;L 70.710678 70.710678 &#xA;L 70.710678 -70.710678 &#xA;L -70.710678 -70.710678 &#xA;z&#xA;" id="m730cf3bc11" style="stroke:#ffffff;stroke-opacity:0.6;"/>
    </defs>
    <g clip-path="url(#p83050ec8d1)">
     <use style="fill:#ffffff;fill-opacity:0.6;stroke:#ffffff;stroke-opacity:0.6;" x="619.79976" xlink:href="#m730cf3bc11" y="68.99976"/>
    </g>
   </g>
   <g id="matplotlib.axis_5">
    <g id="xtick_8"/>
    <g id="xtick_9"/>
    <g id="xtick_10"/>
   </g>
   <g id="matplotlib.axis_6">
    <g id="ytick_5"/>
    <g id="ytick_6"/>
    <g id="ytick_7"/>
    <g id="ytick_8"/>
    <g id="ytick_9"/>
   </g>
  </g>
  <g id="axes_4">
   <g id="patch_11">
    <path d="M 593.87976 119.39976 &#xA;L 604.67976 119.39976 &#xA;L 604.67976 32.99976 &#xA;L 593.87976 32.99976 &#xA;z&#xA;" style="fill:none;"/>
   </g>
   <g id="patch_12">
    <path clip-path="url(#p5f4511ddcc)" d="M 593.87976 32.99976 &#xA;L 593.87976 47.39976 &#xA;L 593.87976 104.99976 &#xA;L 593.87976 119.39976 &#xA;L 604.67976 119.39976 &#xA;L 604.67976 104.99976 &#xA;L 604.67976 47.39976 &#xA;L 604.67976 32.99976 &#xA;L 604.67976 32.99976 &#xA;z&#xA;" style="fill:#ffffff;stroke:#ffffff;stroke-linejoin:miter;stroke-width:0.01;"/>
   </g>
   <g id="QuadMesh_1">
    <path clip-path="url(#p5f4511ddcc)" d="M 593.87976 32.99976 &#xA;L 604.67976 32.99976 &#xA;L 604.67976 47.39976 &#xA;L 593.87976 47.39976 &#xA;L 593.87976 32.99976 &#xA;" style="fill:#d6efb3;"/>
    <path clip-path="url(#p5f4511ddcc)" d="M 593.87976 47.39976 &#xA;L 604.67976 47.39976 &#xA;L 604.67976 61.79976 &#xA;L 593.87976 61.79976 &#xA;L 593.87976 47.39976 &#xA;" style="fill:#a0dab8;"/>
    <path clip-path="url(#p5f4511ddcc)" d="M 593.87976 61.79976 &#xA;L 604.67976 61.79976 &#xA;L 604.67976 76.19976 &#xA;L 593.87976 76.19976 &#xA;L 593.87976 61.79976 &#xA;" style="fill:#5fc1c0;"/>
    <path clip-path="url(#p5f4511ddcc)" d="M 593.87976 76.19976 &#xA;L 604.67976 76.19976 &#xA;L 604.67976 90.59976 &#xA;L 593.87976 90.59976 &#xA;L 593.87976 76.19976 &#xA;" style="fill:#2fa4c2;"/>
    <path clip-path="url(#p5f4511ddcc)" d="M 593.87976 90.59976 &#xA;L 604.67976 90.59976 &#xA;L 604.67976 104.99976 &#xA;L 593.87976 104.99976 &#xA;L 593.87976 90.59976 &#xA;" style="fill:#1f7ab5;"/>
    <path clip-path="url(#p5f4511ddcc)" d="M 593.87976 104.99976 &#xA;L 604.67976 104.99976 &#xA;L 604.67976 119.39976 &#xA;L 593.87976 119.39976 &#xA;L 593.87976 104.99976 &#xA;" style="fill:#234da0;"/>
   </g>
   <g id="matplotlib.axis_7"/>
   <g id="matplotlib.axis_8">
    <g id="ytick_10">
     <g id="line2d_27">
      <defs>
       <path d="M 0 0 &#xA;L 3.5 0 &#xA;" id="m548ca32a17" style="stroke:#000000;stroke-width:0.8;"/>
      </defs>
      <g>
       <use style="stroke:#000000;stroke-width:0.8;" x="604.67976" xlink:href="#m548ca32a17" y="112.19976"/>
      </g>
     </g>
     <g id="text_15">
      <text style="font-family:Arial;font-size:9px;font-stretch:normal;font-style:normal;font-weight:normal;text-anchor:start;" transform="rotate(-0, 611.67976, 115.420776)" x="611.67976" y="115.420776">1.0e-04</text>
     </g>
    </g>
    <g id="ytick_11">
     <g id="line2d_28">
      <g>
       <use style="stroke:#000000;stroke-width:0.8;" x="604.67976" xlink:href="#m548ca32a17" y="97.79976"/>
      </g>
     </g>
     <g id="text_16">
      <text style="font-family:Arial;font-size:9px;font-stretch:normal;font-style:normal;font-weight:normal;text-anchor:start;" transform="rotate(-0, 611.67976, 101.020776)" x="611.67976" y="101.020776">1.0e-15</text>
     </g>
    </g>
    <g id="ytick_12">
     <g id="line2d_29">
      <g>
       <use style="stroke:#000000;stroke-width:0.8;" x="604.67976" xlink:href="#m548ca32a17" y="83.39976"/>
      </g>
     </g>
     <g id="text_17">
      <text style="font-family:Arial;font-size:9px;font-stretch:normal;font-style:normal;font-weight:normal;text-anchor:start;" transform="rotate(-0, 611.67976, 86.620776)" x="611.67976" y="86.620776">1.0e-26</text>
     </g>
    </g>
    <g id="ytick_13">
     <g id="line2d_30">
      <g>
       <use style="stroke:#000000;stroke-width:0.8;" x="604.67976" xlink:href="#m548ca32a17" y="68.99976"/>
      </g>
     </g>
     <g id="text_18">
      <text style="font-family:Arial;font-size:9px;font-stretch:normal;font-style:normal;font-weight:normal;text-anchor:start;" transform="rotate(-0, 611.67976, 72.220776)" x="611.67976" y="72.220776">1.0e-37</text>
     </g>
    </g>
    <g id="ytick_14">
     <g id="line2d_31">
      <g>
       <use style="stroke:#000000;stroke-width:0.8;" x="604.67976" xlink:href="#m548ca32a17" y="54.59976"/>
      </g>
     </g>
     <g id="text_19">
      <text style="font-family:Arial;font-size:9px;font-stretch:normal;font-style:normal;font-weight:normal;text-anchor:start;" transform="rotate(-0, 611.67976, 57.820776)" x="611.67976" y="57.820776">1.0e-47</text>
     </g>
    </g>
    <g id="ytick_15">
     <g id="line2d_32">
      <g>
       <use style="stroke:#000000;stroke-width:0.8;" x="604.67976" xlink:href="#m548ca32a17" y="40.19976"/>
      </g>
     </g>
     <g id="text_20">
      <text style="font-family:Arial;font-size:9px;font-stretch:normal;font-style:normal;font-weight:normal;text-anchor:start;" transform="rotate(-0, 611.67976, 43.420776)" x="611.67976" y="43.420776">1.0e-58</text>
     </g>
    </g>
   </g>
   <g id="LineCollection_1"/>
   <g id="patch_13">
    <path d="M 593.87976 32.99976 &#xA;L 593.87976 47.39976 &#xA;L 593.87976 104.99976 &#xA;L 593.87976 119.39976 &#xA;L 604.67976 119.39976 &#xA;L 604.67976 104.99976 &#xA;L 604.67976 47.39976 &#xA;L 604.67976 32.99976 &#xA;z&#xA;" style="fill:none;"/>
   </g>
   <g id="text_21">
    <text style="font-family:Arial;font-size:9px;font-stretch:normal;font-style:normal;font-weight:normal;text-anchor:middle;" transform="rotate(-0, 599.27976, 26.99976)" x="599.27976" y="26.99976">FDR</text>
   </g>
  </g>
  <g id="axes_5">
   <g id="patch_14">
    <path d="M 587.39976 253.95336 &#xA;L 648.95976 253.95336 &#xA;L 648.95976 128.95848 &#xA;L 587.39976 128.95848 &#xA;z&#xA;" style="fill:none;"/>
   </g>
   <g id="PathCollection_3">
    <g clip-path="url(#pec41c4ac89)">
     <use style="fill:#ffffff;fill-opacity:0.6;stroke:#ffffff;stroke-opacity:0.6;" x="618.17976" xlink:href="#m730cf3bc11" y="191.45592"/>
    </g>
   </g>
   <g id="matplotlib.axis_9">
    <g id="xtick_11"/>
    <g id="xtick_12"/>
    <g id="xtick_13"/>
   </g>
   <g id="matplotlib.axis_10">
    <g id="ytick_16"/>
    <g id="ytick_17"/>
    <g id="ytick_18"/>
    <g id="ytick_19"/>
    <g id="ytick_20"/>
   </g>
  </g>
  <g id="axes_6">
   <g id="PathCollection_4">
    <defs>
     <path d="M 0 4.442617 &#xA;C 1.178196 4.442617 2.308294 3.974514 3.141404 3.141404 &#xA;C 3.974514 2.308294 4.442617 1.178196 4.442617 0 &#xA;C 4.442617 -1.178196 3.974514 -2.308294 3.141404 -3.141404 &#xA;C 2.308294 -3.974514 1.178196 -4.442617 0 -4.442617 &#xA;C -1.178196 -4.442617 -2.308294 -3.974514 -3.141404 -3.141404 &#xA;C -3.974514 -2.308294 -4.442617 -1.178196 -4.442617 0 &#xA;C -4.442617 1.178196 -3.974514 2.308294 -3.141404 3.141404 &#xA;C -2.308294 3.974514 -1.178196 4.442617 0 4.442617 &#xA;z&#xA;" id="md05a1991c4" style="stroke:#b5c2a4;stroke-width:2.2;"/>
    </defs>
    <g clip-path="url(#p920cf364fe)">
     <use style="fill:#d6efb3;stroke:#b5c2a4;stroke-width:2.2;" x="610.07976" xlink:href="#md05a1991c4" y="158.368375"/>
    </g>
   </g>
   <g id="PathCollection_5">
    <defs>
     <path d="M 0 7.478038 &#xA;C 1.983199 7.478038 3.885438 6.690105 5.287771 5.287771 &#xA;C 6.690105 3.885438 7.478038 1.983199 7.478038 0 &#xA;C 7.478038 -1.983199 6.690105 -3.885438 5.287771 -5.287771 &#xA;C 3.885438 -6.690105 1.983199 -7.478038 0 -7.478038 &#xA;C -1.983199 -7.478038 -3.885438 -6.690105 -5.287771 -5.287771 &#xA;C -6.690105 -3.885438 -7.478038 -1.983199 -7.478038 0 &#xA;C -7.478038 1.983199 -6.690105 3.885438 -5.287771 5.287771 &#xA;C -3.885438 6.690105 -1.983199 7.478038 0 7.478038 &#xA;z&#xA;" id="m4af33a38fa" style="stroke:#b5c2a4;stroke-width:2.2;"/>
    </defs>
    <g clip-path="url(#p920cf364fe)">
     <use style="fill:#d6efb3;stroke:#b5c2a4;stroke-width:2.2;" x="610.07976" xlink:href="#m4af33a38fa" y="178.71699"/>
    </g>
   </g>
   <g id="PathCollection_6">
    <defs>
     <path d="M 0 10.497493 &#xA;C 2.783968 10.497493 5.454286 9.391411 7.422849 7.422849 &#xA;C 9.391411 5.454286 10.497493 2.783968 10.497493 0 &#xA;C 10.497493 -2.783968 9.391411 -5.454286 7.422849 -7.422849 &#xA;C 5.454286 -9.391411 2.783968 -10.497493 0 -10.497493 &#xA;C -2.783968 -10.497493 -5.454286 -9.391411 -7.422849 -7.422849 &#xA;C -9.391411 -5.454286 -10.497493 -2.783968 -10.497493 0 &#xA;C -10.497493 2.783968 -9.391411 5.454286 -7.422849 7.422849 &#xA;C -5.454286 9.391411 -2.783968 10.497493 0 10.497493 &#xA;z&#xA;" id="m3fd9b89e85" style="stroke:#b5c2a4;stroke-width:2.2;"/>
    </defs>
    <g clip-path="url(#p920cf364fe)">
     <use style="fill:#d6efb3;stroke:#b5c2a4;stroke-width:2.2;" x="610.07976" xlink:href="#m3fd9b89e85" y="205.124058"/>
    </g>
   </g>
   <g id="PathCollection_7">
    <defs>
     <path d="M 0 12.098826 &#xA;C 3.208646 12.098826 6.286306 10.824017 8.555162 8.555162 &#xA;C 10.824017 6.286306 12.098826 3.208646 12.098826 0 &#xA;C 12.098826 -3.208646 10.824017 -6.286306 8.555162 -8.555162 &#xA;C 6.286306 -10.824017 3.208646 -12.098826 0 -12.098826 &#xA;C -3.208646 -12.098826 -6.286306 -10.824017 -8.555162 -8.555162 &#xA;C -10.824017 -6.286306 -12.098826 -3.208646 -12.098826 0 &#xA;C -12.098826 3.208646 -10.824017 6.286306 -8.555162 8.555162 &#xA;C -6.286306 10.824017 -3.208646 12.098826 0 12.098826 &#xA;z&#xA;" id="mee73342aaf" style="stroke:#b5c2a4;stroke-width:2.2;"/>
    </defs>
    <g clip-path="url(#p920cf364fe)">
     <use style="fill:#d6efb3;stroke:#b5c2a4;stroke-width:2.2;" x="610.07976" xlink:href="#mee73342aaf" y="235.75324"/>
    </g>
   </g>
   <g id="text_22">
    <text style="font-family:Arial;font-size:9px;font-stretch:normal;font-style:normal;font-weight:normal;text-anchor:start;" transform="rotate(-0, 626.27976, 161.824862)" x="626.27976" y="161.824862">5</text>
   </g>
   <g id="text_23">
    <text style="font-family:Arial;font-size:9px;font-stretch:normal;font-style:normal;font-weight:normal;text-anchor:start;" transform="rotate(-0, 626.27976, 182.173476)" x="626.27976" y="182.173476">15</text>
   </g>
   <g id="text_24">
    <text style="font-family:Arial;font-size:9px;font-stretch:normal;font-style:normal;font-weight:normal;text-anchor:start;" transform="rotate(-0, 626.27976, 208.580545)" x="626.27976" y="208.580545">30</text>
   </g>
   <g id="text_25">
    <text style="font-family:Arial;font-size:9px;font-stretch:normal;font-style:normal;font-weight:normal;text-anchor:start;" transform="rotate(-0, 626.27976, 239.209726)" x="626.27976" y="239.209726">40</text>
   </g>
   <g id="text_26">
    <text style="font-family:Arial;font-size:9px;font-stretch:normal;font-style:normal;font-weight:normal;text-anchor:middle;" transform="rotate(-0, 616.55976, 142.19976)" x="616.55976" y="142.19976">Gene count</text>
   </g>
  </g>
 </g>
 <defs>
  <clipPath id="p6efd7c98b3">
   <rect height="243.80827" width="395.970866" x="147.755937" y="21.214531"/>
  </clipPath>
  <clipPath id="p9b6236a1c0">
   <rect height="243.80827" width="98.992717" x="550.206803" y="21.214531"/>
  </clipPath>
  <clipPath id="p83050ec8d1">
   <rect height="108" width="64.8" x="587.39976" y="14.99976"/>
  </clipPath>
  <clipPath id="p5f4511ddcc">
   <rect height="86.4" width="10.8" x="593.87976" y="32.99976"/>
  </clipPath>
  <clipPath id="pec41c4ac89">
   <rect height="124.99488" width="61.56" x="587.39976" y="128.95848"/>
  </clipPath>
  <clipPath id="p920cf364fe">
   <rect height="146.88" width="32.4" x="593.87976" y="148.19976"/>
  </clipPath>
 </defs>
</svg>